<svg xmlns="http://www.w3.org/2000/svg" xmlns:xlink="http://www.w3.org/1999/xlink">
  <symbol viewBox="0 0 512 512" id="logo">
    <path d="m189.059 48.613h133.882l20.136-48.613h-174.154z"/>
    <path d="m350.766 60.139 16.047 16.047 48.614-20.137-44.524-44.523z"/>
    <path d="m133.661 407.989v-303.978l-48.613-20.136v344.25z"/>
    <path d="m145.187 76.186 16.047-16.047-20.137-48.613-44.524 44.523z"/>
    <path d="m366.813 435.814-16.047 16.047 20.137 48.613 44.524-44.523z"/>
    <path d="m161.234 451.861-16.047-16.047-48.614 20.137 44.524 44.523z"/>
    <path d="m378.339 104.011v303.978l48.613 20.136v-344.25z"/>
    <path d="m322.941 463.387h-133.882l-20.136 48.613h174.154z"/>
    <path d="m348.222 100.187-21.456-21.456h-141.532l-21.456 21.456v311.626l21.456 21.456h141.532l21.456-21.456z"/>
  </symbol>
  <symbol viewBox="0 0 470 470" id="login">
    <path d="M297.5,62.5c-32.723,0-64.571,9.208-92.103,26.628c-26.773,16.94-48.366,40.868-62.445,69.196l26.865,13.352C194.089,122.838,243.015,92.5,297.5,92.5C376.075,92.5,440,156.425,440,235s-63.925,142.5-142.5,142.5c-54.485,0-103.411-30.338-127.683-79.176l-26.865,13.352c14.079,28.329,35.672,52.256,62.445,69.196c27.532,17.42,59.38,26.628,92.103,26.628c95.117,0,172.5-77.383,172.5-172.5S392.617,62.5,297.5,62.5z"/>
    <polygon points="226.894,284.394 248.106,305.606 318.713,235 248.106,164.394 226.894,185.606 261.287,220 0,220 0,250 261.287,250"/>
  </symbol>
  <symbol viewBox="0 0 512 512" id="basket">
    <path d="m472 452c0 11.046-8.954 20-20 20h-20v20c0 11.046-8.954 20-20 20s-20-8.954-20-20v-20h-20c-11.046 0-20-8.954-20-20s8.954-20 20-20h20v-20c0-11.046 8.954-20 20-20s20 8.954 20 20v20h20c11.046 0 20 8.954 20 20zm0-312v192c0 11.046-8.954 20-20 20s-20-8.954-20-20v-172h-40v60c0 11.046-8.954 20-20 20s-20-8.954-20-20v-60h-192v60c0 11.046-8.954 20-20 20s-20-8.954-20-20v-60h-40v312h212c11.046 0 20 8.954 20 20s-8.954 20-20 20h-232c-11.046 0-20-8.954-20-20v-352c0-11.046 8.954-20 20-20h60.946c7.945-67.477 65.477-120 135.054-120s127.109 52.523 135.054 120h60.946c11.046 0 20 8.954 20 20zm-121.341-20c-7.64-45.345-47.176-80-94.659-80s-87.019 34.655-94.659 80z"/>
  </symbol>
  <symbol viewBox="0 0 512 512" id="admin">
    <path d="M467,331h-15v-15c0-24.813-20.187-45-45-45H271v-30c14.095,0,30.95,0,45,0c8.284,0,15-6.716,15-15s-6.716-15-15-15h-15v-30h45c24.813,0,45-20.187,45-45V45c0-24.813-20.187-45-45-45H166c-24.813,0-45,20.187-45,45v91c0,24.813,20.187,45,45,45h45v30h-15c-8.284,0-15,6.716-15,15s6.716,15,15,15c14.05,0,30.905,0,45,0v30H105c-24.813,0-45,20.187-45,45v15H45c-24.813,0-45,20.187-45,45v30c0,24.813,20.187,45,45,45h15v31H45c-8.284,0-15,6.716-15,15s6.716,15,15,15h60c8.284,0,15-6.716,15-15s-6.716-15-15-15H90v-31h15c24.813,0,45-20.187,45-45v-30c0-24.813-20.187-45-45-45H90v-15c0-8.271,6.729-15,15-15h136v30h-15c-24.813,0-45,20.187-45,45v30c0,24.813,20.187,45,45,45h15v31h-15c-8.284,0-15,6.716-15,15s6.716,15,15,15h60c8.284,0,15-6.716,15-15s-6.716-15-15-15h-15v-31h15c24.813,0,45-20.187,45-45v-30c0-24.813-20.187-45-45-45h-15v-30h136c8.271,0,15,6.729,15,15v15h-15c-24.813,0-45,20.187-45,45v30c0,24.813,20.187,45,45,45h15v31h-15c-8.284,0-15,6.716-15,15s6.716,15,15,15h60c8.284,0,15-6.716,15-15s-6.716-15-15-15h-15v-31h15c24.813,0,45-20.187,45-45v-30C512,351.187,491.813,331,467,331z M105,361c8.271,0,15,6.729,15,15v30c0,8.271-6.729,15-15,15H45c-8.271,0-15-6.729-15-15v-30c0-8.271,6.729-15,15-15H105z M166,151c-8.271,0-15-6.729-15-15V45c0-8.271,6.729-15,15-15h180c8.271,0,15,6.729,15,15v91c0,8.271-6.729,15-15,15C309.96,151,201.911,151,166,151z M286,361c8.271,0,15,6.729,15,15v30c0,8.271-6.729,15-15,15h-60c-8.271,0-15-6.729-15-15v-30c0-8.271,6.729-15,15-15H286z M241,211v-30h30v30H241z M482,406c0,8.271-6.729,15-15,15h-60c-8.271,0-15-6.729-15-15v-30c0-8.271,6.729-15,15-15h60c8.271,0,15,6.729,15,15V406z"/>
  </symbol>
  <symbol viewBox="0 0 511.962 511.962" id="vk">
    <path d="M507.399,370.471c-1.376-2.304-9.888-20.8-50.848-58.816c-42.88-39.808-37.12-33.344,14.528-102.176c31.456-41.92,44.032-67.52,40.096-78.464c-3.744-10.432-26.88-7.68-26.88-7.68l-76.928,0.448c0,0-5.696-0.768-9.952,1.76c-4.128,2.496-6.784,8.256-6.784,8.256s-12.192,32.448-28.448,60.032c-34.272,58.208-48,61.28-53.6,57.664c-13.024-8.416-9.76-33.856-9.76-51.904c0-56.416,8.544-79.936-16.672-86.016c-8.384-2.016-14.528-3.36-35.936-3.584c-27.456-0.288-50.72,0.096-63.872,6.528c-8.768,4.288-15.52,13.856-11.392,14.4c5.088,0.672,16.608,3.104,22.72,11.424c7.904,10.72,7.616,34.848,7.616,34.848s4.544,66.4-10.592,74.656c-10.4,5.664-24.64-5.888-55.2-58.72c-15.648-27.04-27.488-56.96-27.488-56.96s-2.272-5.568-6.336-8.544c-4.928-3.616-11.84-4.768-11.84-4.768l-73.152,0.448c0,0-10.976,0.32-15.008,5.088c-3.584,4.256-0.288,13.024-0.288,13.024s57.28,133.984,122.112,201.536c59.488,61.92,127.008,57.856,127.008,57.856h30.592c0,0,9.248-1.024,13.952-6.112c4.352-4.672,4.192-13.44,4.192-13.44s-0.608-41.056,18.464-47.104c18.784-5.952,42.912,39.68,68.48,57.248c19.328,13.28,34.016,10.368,34.016,10.368l68.384-0.96C488.583,400.807,524.359,398.599,507.399,370.471z"/>
  </symbol>
  <symbol viewBox="0 0 511 511.9" id="inst">
    <path d="m510.949219 150.5c-1.199219-27.199219-5.597657-45.898438-11.898438-62.101562-6.5-17.199219-16.5-32.597657-29.601562-45.398438-12.800781-13-28.300781-23.101562-45.300781-29.5-16.296876-6.300781-34.898438-10.699219-62.097657-11.898438-27.402343-1.300781-36.101562-1.601562-105.601562-1.601562s-78.199219.300781-105.5 1.5c-27.199219 1.199219-45.898438 5.601562-62.097657 11.898438-17.203124 6.5-32.601562 16.5-45.402343 29.601562-13 12.800781-23.097657 28.300781-29.5 45.300781-6.300781 16.300781-10.699219 34.898438-11.898438 62.097657-1.300781 27.402343-1.601562 36.101562-1.601562 105.601562s.300781 78.199219 1.5 105.5c1.199219 27.199219 5.601562 45.898438 11.902343 62.101562 6.5 17.199219 16.597657 32.597657 29.597657 45.398438 12.800781 13 28.300781 23.101562 45.300781 29.5 16.300781 6.300781 34.898438 10.699219 62.101562 11.898438 27.296876 1.203124 36 1.5 105.5 1.5s78.199219-.296876 105.5-1.5c27.199219-1.199219 45.898438-5.597657 62.097657-11.898438 34.402343-13.300781 61.601562-40.5 74.902343-74.898438 6.296876-16.300781 10.699219-34.902343 11.898438-62.101562 1.199219-27.300781 1.5-36 1.5-105.5s-.101562-78.199219-1.300781-105.5zm-46.097657 209c-1.101562 25-5.300781 38.5-8.800781 47.5-8.601562 22.300781-26.300781 40-48.601562 48.601562-9 3.5-22.597657 7.699219-47.5 8.796876-27 1.203124-35.097657 1.5-103.398438 1.5s-76.5-.296876-103.402343-1.5c-25-1.097657-38.5-5.296876-47.5-8.796876-11.097657-4.101562-21.199219-10.601562-29.398438-19.101562-8.5-8.300781-15-18.300781-19.101562-29.398438-3.5-9-7.699219-22.601562-8.796876-47.5-1.203124-27-1.5-35.101562-1.5-103.402343s.296876-76.5 1.5-103.398438c1.097657-25 5.296876-38.5 8.796876-47.5 4.101562-11.101562 10.601562-21.199219 19.203124-29.402343 8.296876-8.5 18.296876-15 29.398438-19.097657 9-3.5 22.601562-7.699219 47.5-8.800781 27-1.199219 35.101562-1.5 103.398438-1.5 68.402343 0 76.5.300781 103.402343 1.5 25 1.101562 38.5 5.300781 47.5 8.800781 11.097657 4.097657 21.199219 10.597657 29.398438 19.097657 8.5 8.300781 15 18.300781 19.101562 29.402343 3.5 9 7.699219 22.597657 8.800781 47.5 1.199219 27 1.5 35.097657 1.5 103.398438s-.300781 76.300781-1.5 103.300781zm0 0"/>
    <path d="m256.449219 124.5c-72.597657 0-131.5 58.898438-131.5 131.5s58.902343 131.5 131.5 131.5c72.601562 0 131.5-58.898438 131.5-131.5s-58.898438-131.5-131.5-131.5zm0 216.800781c-47.097657 0-85.300781-38.199219-85.300781-85.300781s38.203124-85.300781 85.300781-85.300781c47.101562 0 85.300781 38.199219 85.300781 85.300781s-38.199219 85.300781-85.300781 85.300781zm0 0"/>
    <path d="m423.851562 119.300781c0 16.953125-13.746093 30.699219-30.703124 30.699219-16.953126 0-30.699219-13.746094-30.699219-30.699219 0-16.957031 13.746093-30.699219 30.699219-30.699219 16.957031 0 30.703124 13.742188 30.703124 30.699219zm0 0"/>
  </symbol>
  <symbol viewBox="0 0 512 512" id="twitter">
    <path d="M512,97.248c-19.04,8.352-39.328,13.888-60.48,16.576c21.76-12.992,38.368-33.408,46.176-58.016c-20.288,12.096-42.688,20.64-66.56,25.408C411.872,60.704,384.416,48,354.464,48c-58.112,0-104.896,47.168-104.896,104.992c0,8.32,0.704,16.32,2.432,23.936c-87.264-4.256-164.48-46.08-216.352-109.792c-9.056,15.712-14.368,33.696-14.368,53.056c0,36.352,18.72,68.576,46.624,87.232c-16.864-0.32-33.408-5.216-47.424-12.928c0,0.32,0,0.736,0,1.152c0,51.008,36.384,93.376,84.096,103.136c-8.544,2.336-17.856,3.456-27.52,3.456c-6.72,0-13.504-0.384-19.872-1.792c13.6,41.568,52.192,72.128,98.08,73.12c-35.712,27.936-81.056,44.768-130.144,44.768c-8.608,0-16.864-0.384-25.12-1.44C46.496,446.88,101.6,464,161.024,464c193.152,0,298.752-160,298.752-298.688c0-4.64-0.16-9.12-0.384-13.568C480.224,136.96,497.728,118.496,512,97.248z"/>
  </symbol>
</svg>
